<svg xmlns="http://www.w3.org/2000/svg" viewBox="0 0 580.77 244.96"><defs><style>.cls-1{fill:#fff;}</style></defs><g id="Layer_2" data-name="Layer 2"><g id="Layer_1-2" data-name="Layer 1"><path class="cls-1" d="M14.53,59.1c.09,4.87-.09,9.74-.17,14.62A12.9,12.9,0,0,1,14,76.85,6.65,6.65,0,0,1,8.27,82a7,7,0,0,1-7-4.09C.87,77.2.7,76.5.35,75.63.26,74.15,0,72.5,0,70.84c.09-9.13.17-18.27.35-27.4A21.11,21.11,0,0,1,.7,39.35,9.2,9.2,0,0,1,2.09,36a5.86,5.86,0,0,1,9.92.09,8.92,8.92,0,0,1,1.48,4.7c.26,6.09.69,12.18.87,18.27Z"/><path class="cls-1" d="M23.92,40.74c-.17,2.26-.26,4.53-.34,6.53.43,7.39.69,14.53,2.35,21.49a12.78,12.78,0,0,1,.34,3.13,3.71,3.71,0,0,1-2.95,3.57,3.64,3.64,0,0,1-4.18-1.92,15.45,15.45,0,0,1-1.39-3.83c-.61-2.95-1.22-5.91-1.66-9-1.39-10.09-1.91-20.27-.43-30.45A21.83,21.83,0,0,1,17,25c3-7,11.14-8.44,16.45-3A23.54,23.54,0,0,1,38,30c.43,1.13.87,2.26,1.39,3.4,0,.08.61.08.61,0a17.35,17.35,0,0,0,1-3A105.1,105.1,0,0,1,45.85,14.2a29.69,29.69,0,0,1,1.65-3.74A8,8,0,0,1,51,7a6.18,6.18,0,0,1,6.88.35,6.59,6.59,0,0,1,2.87,6.79,7.38,7.38,0,0,1-.44,1.3c-3.56,11-5,22.54-5.74,34.11-.35,4.87-.61,9.74-1.13,14.53A61.41,61.41,0,0,1,51.59,72a12.68,12.68,0,0,1-1.13,2.52c-4.09,7.31-12.88,7.74-17.49.69a39,39,0,0,1-5.74-17.14c-.7-6.17-1.3-12.35-2-18.53,0-.26-.44-.52-.7-.78-.17.26-.43.43-.52.7a3.54,3.54,0,0,0-.26,1.3Z"/><path class="cls-1" d="M88.65,30.47h-1c-1.65-.08-3.39-.17-4.18,1.05A3.67,3.67,0,0,0,83,33.69q.65,17.24,1.3,34.46a20.17,20.17,0,0,1-.69,7.57A7.7,7.7,0,0,1,78,80.85a7.42,7.42,0,0,1-7-3.39A17.24,17.24,0,0,1,68.64,70c-1.83-12.61-1.56-25.49-1-38.28A3.3,3.3,0,0,0,67,29.26c-.78-.87-2.18-.79-3.39-.87-3.31-.27-6.36-2.88-6.62-6-.78-11.22,24.63-6.87,30.89-5.74a14.23,14.23,0,0,1,5.31,1.83A6.56,6.56,0,0,1,95.79,26a7.65,7.65,0,0,1-6.88,4.79Z"/><path class="cls-1" d="M96.83,72.58c-.17-4.35-.26-8.7-.44-14.79a138.53,138.53,0,0,1,1.57-23,25.17,25.17,0,0,1,3.13-9.31c4.18-6.69,10.18-10.09,18.1-9.74A15.65,15.65,0,0,1,132,23.08c5.13,7.57,5.22,19.92-3.65,27.14a4.68,4.68,0,0,0-1.22,1.05,2.94,2.94,0,0,0-.7,1.74c1.31,6,2.7,12,4.09,18a23,23,0,0,1,.78,3.39,6.49,6.49,0,0,1-3.22,6.7,6.86,6.86,0,0,1-7.48-.17A10,10,0,0,1,116.23,75c-1-3.57-1.74-7.13-2.61-10.7-.35-1.57-.52-3.13-1-4.61a5.81,5.81,0,0,0-1.39-2.35,2.35,2.35,0,0,0-1.74-.61c-.17,0-.43.87-.52,1.39-.17,1.57-.26,3.13-.35,4.7-.17,3.83-.35,7.66-.61,11.48a11.47,11.47,0,0,1-.61,3.05,5.27,5.27,0,0,1-10.18-.17,20.87,20.87,0,0,1-.69-4.62Zm21.49-33.75c1.65-.87,2.26-2.44,2.26-4.53a11,11,0,0,0-.52-2,2.46,2.46,0,0,0-3.48-1.56,5.33,5.33,0,0,0-3,3c-.69,1.83-1.22,3.74-1.83,5.66-.52,1.47-.17,2.43,1.66,1.74a32.35,32.35,0,0,0,5-2.27Z"/><path class="cls-1" d="M173,29.52a36.27,36.27,0,0,1,2.61,9.39,70.71,70.71,0,0,1-.09,17.14c-.52,5.22-1.31,10.53-3.57,15.23s-6.26,8.87-11.31,10.27c-7.39,2-15.4-2.44-19.58-8.79s-5.3-14.27-5.56-21.93c-.26-7.13.17-14.35,2.69-21S146.42,15,154.08,15.07c8.35.09,15.74,7.31,19,14.53ZM158.69,61.1a52,52,0,0,0,3.39-26.19,2.32,2.32,0,0,0-.09-.78c-.26-1.57-1-6.53-3-7.05-2.95-.78-4,4.53-4.52,6.79-2.17,9.31-3.39,19.4.17,28.27a2.37,2.37,0,0,0,.87,1.31c1.31.78,2.7-.87,3.22-2.26Z"/><path class="cls-1" d="M177.65,70.06a51.93,51.93,0,0,1-1.39-13.14,210.75,210.75,0,0,1,1.56-27.75,23.46,23.46,0,0,1,1-4.87,6.26,6.26,0,0,1,5.66-4.53,19.75,19.75,0,0,1,16.09,4.7A30.74,30.74,0,0,1,211,42.74a40.84,40.84,0,0,1-5.56,29.32,18.44,18.44,0,0,1-12.1,8.79c-5,1.22-11.92-.44-14.88-8.18C178,71.54,177.74,70.32,177.65,70.06Zm17.66-3.48a32.87,32.87,0,0,0,3-21.75c-.87-1.91-1.65-3.92-2.61-5.83a10,10,0,0,0-3.74-3.91c-1-.61-1.83-.27-1.91.86-.44,8.53-.79,17.06-1.14,25.58a31.66,31.66,0,0,0,.27,5,9.35,9.35,0,0,0,.69,2.61,1.8,1.8,0,0,0,2.35.79,6.17,6.17,0,0,0,3-3.31Z"/><path class="cls-1" d="M213.49,63.36A102.84,102.84,0,0,1,212,47.87c.27-7.13.53-14.26.87-21.4a40.32,40.32,0,0,1,.7-6.35,10.28,10.28,0,0,1,1.65-4.18,6.06,6.06,0,0,1,10.71,1.13,12.45,12.45,0,0,1,.87,4.36c.26,4.43.34,8.87.6,13.31q.66,10.17,1.57,20.36a25.66,25.66,0,0,0,2.26,9.22,1.64,1.64,0,0,0,1,.61,1.15,1.15,0,0,0,.69-.61A16.3,16.3,0,0,0,234,60.4c.35-3.13.52-6.35.61-9.57.26-7.91.34-15.83.78-23.75a59.28,59.28,0,0,1,1.56-9.4A8.82,8.82,0,0,1,238.9,14a5.93,5.93,0,0,1,10.53,3.74v.87c-1,9.57-.44,19.14-.79,28.71-.17,5.48-.52,11-1.13,16.36a27.92,27.92,0,0,1-4.17,11.92,16.46,16.46,0,0,1-5.75,5.74,13.11,13.11,0,0,1-15-.78,22.53,22.53,0,0,1-5.4-6.09,30.65,30.65,0,0,1-4.08-11.57Z"/><path class="cls-1" d="M253.6,72.41c-3-5.92-4.18-12.27-4.18-19.75a48.56,48.56,0,0,1,7.14-25.23,26.72,26.72,0,0,1,7.57-8.35,16.13,16.13,0,0,1,9.31-3.14c7.48,0,13.31,7.4,11.31,15.14a7.63,7.63,0,0,1-4.53,5.14,4,4,0,0,1-4.78-.61c-1.39-1.22-2-1.13-2.87.43a42.15,42.15,0,0,0-3.22,6.27c-2.09,5.13-2.26,10.52-1.66,15.92a21.78,21.78,0,0,0,1.22,4.61c.61,1.65,2,1.91,3.31.61a10.69,10.69,0,0,0,2.26-3,45.83,45.83,0,0,0,2.09-5.74c.43-1.22.52-2.52,1-3.74a6.31,6.31,0,0,1,6.09-4.44A5.71,5.71,0,0,1,289,52.23c-.17,7.56-.69,15.13-5.22,21.75a21.5,21.5,0,0,1-6,5.91,14.93,14.93,0,0,1-15.75,1,18.38,18.38,0,0,1-8.44-8.62Z"/><path class="cls-1" d="M305.71,50.57c.79,8.18,0,16.36-.08,24.54a9.19,9.19,0,0,1-.61,3,7,7,0,0,1-6.09,4.79,7.17,7.17,0,0,1-7.05-3.22,9,9,0,0,1-1.65-4.61c-1.31-11.49-1.92-23-.44-34.46a15.81,15.81,0,0,1,1-4.43,7,7,0,0,1,6.61-4.7,6.73,6.73,0,0,1,6.61,4.61,18.52,18.52,0,0,1,1,4.35c.35,3.31.53,6.61.79,9.92Zm-7.39-24.1a7.88,7.88,0,0,1-7.92-7.31,8.09,8.09,0,0,1,7.48-7.83,7.12,7.12,0,0,1,7.48,6.88c.18,4.09-3.13,7.91-7,8.09Z"/><path class="cls-1" d="M315.8,40.74c-.17,2.26-.26,4.53-.34,6.53.43,7.39.69,14.53,2.35,21.49a12.78,12.78,0,0,1,.34,3.13,3.71,3.71,0,0,1-3,3.57A3.63,3.63,0,0,1,311,73.54a15.45,15.45,0,0,1-1.39-3.83c-.61-2.95-1.22-5.91-1.66-9-1.39-10.09-1.91-20.27-.43-30.45a21.83,21.83,0,0,1,1.3-5.31c3-7,11.14-8.44,16.45-3A23.54,23.54,0,0,1,329.9,30c.43,1.13.87,2.26,1.39,3.4,0,.08.61.08.61,0a17.35,17.35,0,0,0,1-3,104,104,0,0,1,4.87-16.19,28.31,28.31,0,0,1,1.65-3.74A8,8,0,0,1,342.86,7a6.18,6.18,0,0,1,6.88.35,6.59,6.59,0,0,1,2.87,6.79,7.38,7.38,0,0,1-.44,1.3c-3.57,11-5,22.54-5.74,34.11-.35,4.87-.61,9.74-1.13,14.53A61.41,61.41,0,0,1,343.47,72a12.68,12.68,0,0,1-1.13,2.52c-4.09,7.31-12.88,7.74-17.49.69a39,39,0,0,1-5.74-17.14c-.7-6.17-1.3-12.35-2-18.53,0-.26-.44-.52-.7-.78-.17.26-.43.43-.52.7a3.54,3.54,0,0,0-.26,1.3Z"/><path class="cls-1" d="M353,65.19c-.35-1.57-.52-3.22-.87-5.31a64.33,64.33,0,0,1,7.65-33,26.64,26.64,0,0,1,6.7-8.27,16.42,16.42,0,0,1,10.1-3.74A11.88,11.88,0,0,1,388.71,29a15.61,15.61,0,0,1-3.83,8,9.53,9.53,0,0,1-3.22,2.35,4.2,4.2,0,0,1-6-3.92,21.51,21.51,0,0,1,.35-2.35c.09-.69,1-1.3.26-2.08-.52.61-1.13,1.13-1.57,1.74a27.29,27.29,0,0,0-3.91,8,.94.94,0,0,0,.61,1.31c1,.26,2.17.34,3.22.6a19.2,19.2,0,0,1,8.17,3.57,9.59,9.59,0,0,1,3.83,6.44,18.52,18.52,0,0,1,.35,3.13,39.65,39.65,0,0,1-3.22,15.92A29.25,29.25,0,0,1,381.4,76c-3.3,4.87-8.18,6.61-13.83,6.17a12.83,12.83,0,0,1-9.49-5.82,29.86,29.86,0,0,1-4.69-11.23Zm21.4-13.92a13,13,0,0,0-2.87-.61c-2.61.26-3.39.87-3.65,2.78a22.2,22.2,0,0,0,.78,10.44c1,2.88,1.74,3.57,4.7,1.22a6.05,6.05,0,0,0,1.3-1.65,39.34,39.34,0,0,0,2.87-5.83c1.31-3.74.61-5.13-3.22-6.53Z"/><path class="cls-1" d="M396,65.89c3.85.1,6.49,3.11,6.39,7.24s-3,7.15-6.67,7.05-6.39-3.19-6.39-7.33,2.63-7,6.58-6.86Z"/><path class="cls-1" d="M413.85,65.89c3.85.1,6.49,3.11,6.39,7.24s-3,7.15-6.67,7.05-6.39-3.19-6.39-7.33,2.63-7,6.58-6.86Z"/><path class="cls-1" d="M431.71,65.89c3.85.1,6.49,3.11,6.39,7.24s-3,7.15-6.67,7.05S425,77,425,72.85s2.63-7,6.58-6.86Z"/><path class="cls-1" d="M453.14,37.41c-.19,2.45-.28,4.89-.37,7.05.47,8,.75,15.7,2.53,23.22a13.49,13.49,0,0,1,.38,3.38,4,4,0,0,1-3.2,3.86A3.91,3.91,0,0,1,448,72.85a16.73,16.73,0,0,1-1.5-4.14c-.66-3.19-1.32-6.39-1.79-9.68-1.5-10.9-2.07-21.9-.47-32.9a23.33,23.33,0,0,1,1.41-5.73c3.2-7.52,12-9.12,17.77-3.19a25.18,25.18,0,0,1,5,8.55c.47,1.22.94,2.44,1.5,3.66,0,.1.66.1.66,0a17,17,0,0,0,1-3.19,113.13,113.13,0,0,1,5.27-17.48,32.49,32.49,0,0,1,1.78-4A8.64,8.64,0,0,1,482.37.94a6.7,6.7,0,0,1,7.43.38,7.11,7.11,0,0,1,3.1,7.33,7.78,7.78,0,0,1-.47,1.41c-3.85,11.94-5.36,24.35-6.2,36.85-.38,5.26-.66,10.53-1.22,15.69a67.25,67.25,0,0,1-2,8.56,13.86,13.86,0,0,1-1.22,2.72c-4.42,7.9-13.91,8.37-18.89.76a42.17,42.17,0,0,1-6.21-18.52c-.75-6.68-1.41-13.35-2.16-20,0-.28-.47-.57-.75-.85-.19.28-.47.47-.56.75a3.74,3.74,0,0,0-.29,1.41Z"/><path class="cls-1" d="M488.39,75.58a43.05,43.05,0,0,1-1.69-13.82A87.44,87.44,0,0,1,492.53,32a38.18,38.18,0,0,1,7.14-12.22,16.74,16.74,0,0,1,8.93-5.45,10.22,10.22,0,0,1,10.62,3.57,14.13,14.13,0,0,1,3.2,11.47c-.28,2.26-1.41,3.67-3,4-2,.37-3.48-.47-4.6-2.63-.48-.85-.76-1.79-1.23-2.64a1.11,1.11,0,0,0-2-.09,17.76,17.76,0,0,0-1.13,1.69,61.72,61.72,0,0,0-5.17,13.26c-.37,1.5,0,2,1.6,2.06.94.1,1.88,0,2.82.1a5.2,5.2,0,0,1,.66,10.24,29,29,0,0,1-5.74.19c-1.41,0-2,.38-2.16,1.79a37.75,37.75,0,0,0,.47,13,6.31,6.31,0,0,0,.47,1.13c.47,1.12,1.51,1.41,2.16.47,1.13-1.7,2.17-3.48,3.2-5.27.47-.84.75-1.78,1.22-2.54a6.41,6.41,0,0,1,7-2.82,6.57,6.57,0,0,1,4.79,5.55A9.16,9.16,0,0,1,521.2,72c-1.41,3.11-2.73,6.21-4.23,9.22a16.86,16.86,0,0,1-2.92,3.85C508,91,500.14,90.9,494.13,85a22.73,22.73,0,0,1-5.55-9.4Z"/><path class="cls-1" d="M565.84,82.25a9.11,9.11,0,0,1-7.42,2.91,8.34,8.34,0,0,1-6.2-2.82c-.76-.75-1.23-1.69-2-2.44-1-1.13-.75-3.29-2.72-3.76-.94,1.22-1.79,2.44-2.73,3.57-4.51,5.64-11.75,5.45-16-.47a18.19,18.19,0,0,1-3.1-7.52,103.92,103.92,0,0,1-2-13.16c-.56-9.49-.75-19-1-28.48a24.33,24.33,0,0,1,.19-4.51,9,9,0,0,1,.75-2.72A5.86,5.86,0,0,1,529,19.27a5.52,5.52,0,0,1,5.45,3.39A13.31,13.31,0,0,1,535.58,27c1.13,8.18,2.16,16.36,3.29,24.53.19,1.32.47,2.64.75,4,.09.28.38.75.47.75a1.79,1.79,0,0,0,1-.56c.76-1.13,1.32-2.35,2.07-3.48a25.33,25.33,0,0,1,2.73-3.57c2.91-2.82,6.39-2.54,9,.47.28.37.47.75.75,1.13s.57,1.22,1.23.84c.37-.18.56-.94.65-1.5.19-1.69.28-3.38.38-5.08a135.24,135.24,0,0,1,4.79-25.19A28.07,28.07,0,0,1,565,13.82a8.73,8.73,0,0,1,6.77-4.6,7.93,7.93,0,0,1,8.83,6.58,9.78,9.78,0,0,1-.56,5.45c-3.1,8.17-4.42,16.82-5.36,25.47-.85,7.33-1.69,14.66-2.63,21.9a25.58,25.58,0,0,1-2.73,9.12,24.79,24.79,0,0,1-3.38,4.79Z"/><path class="cls-1" d="M279.82,227c-.16-4.16-.24-8.33-.41-14.16a132.56,132.56,0,0,1,1.5-22,24.16,24.16,0,0,1,3-8.91c4-6.41,9.75-9.66,17.32-9.32a15,15,0,0,1,12.24,7c4.92,7.24,5,19.07-3.49,26a4.44,4.44,0,0,0-1.17,1,2.79,2.79,0,0,0-.66,1.66c1.24,5.75,2.58,11.49,3.91,17.24a22.12,22.12,0,0,1,.75,3.25,6.23,6.23,0,0,1-3.08,6.41,6.55,6.55,0,0,1-7.16-.17,9.49,9.49,0,0,1-4.17-5.66c-.91-3.41-1.66-6.83-2.49-10.24-.34-1.5-.5-3-.92-4.42a5.58,5.58,0,0,0-1.33-2.24,2.28,2.28,0,0,0-1.67-.59c-.17,0-.42.84-.5,1.34-.16,1.49-.25,3-.33,4.49-.17,3.67-.33,7.33-.58,11a11.39,11.39,0,0,1-.59,2.92,5,5,0,0,1-9.74-.17,19,19,0,0,1-.66-4.41Zm20.57-32.31c1.58-.83,2.17-2.33,2.17-4.33a11.33,11.33,0,0,0-.5-1.91,2.35,2.35,0,0,0-3.33-1.5,5.09,5.09,0,0,0-2.83,2.91c-.67,1.75-1.17,3.58-1.75,5.41-.5,1.42-.17,2.34,1.58,1.67a30.06,30.06,0,0,0,4.75-2.17Z"/><path class="cls-1" d="M342.94,180.07a21.69,21.69,0,0,1,4.58,8.74,60.65,60.65,0,0,1,1.67,13.41c-.17,9.32-.42,18.65-.67,28a11.23,11.23,0,0,1-.41,2.91,6.49,6.49,0,0,1-6.58,4.83A6.83,6.83,0,0,1,335.2,232a38,38,0,0,1-.08-4.42c0-1.33.08-2.66.08-4-.08-2.67-.75-3.17-3.33-2.58a2,2,0,0,0-1.75,2c-.25,2.59-.42,5.17-.67,7.75a22.08,22.08,0,0,1-.41,3.41c-.59,2.67-2.25,4.08-4.67,4.17a5,5,0,0,1-4.82-4.17,18.91,18.91,0,0,1-.42-4.41c-.08-7.66-.25-15.32-.17-23a122.57,122.57,0,0,1,.75-12.24,27,27,0,0,1,3.42-10.66,16.51,16.51,0,0,1,5.24-5.75,10.66,10.66,0,0,1,14.24,1.59Zm-7.07,28.39a70,70,0,0,0-.75-15.07,6.28,6.28,0,0,0-.42-1c-.08-.16-.25-.41-.33-.41-.34.08-.75.16-.92.41a6.21,6.21,0,0,0-.83,1.67A65.57,65.57,0,0,0,331,209.63c0,1,.75,1.33,1.67,1.33,2.5.08,3.08-.33,3.25-2.58Z"/><path class="cls-1" d="M360.18,196.47c-.16,2.17-.25,4.33-.33,6.25.41,7.08.66,13.9,2.25,20.56a12.26,12.26,0,0,1,.33,3,3.57,3.57,0,0,1-2.83,3.42,3.47,3.47,0,0,1-4-1.84,14.89,14.89,0,0,1-1.33-3.66c-.58-2.83-1.17-5.66-1.58-8.58-1.34-9.65-1.84-19.4-.42-29.14a20.43,20.43,0,0,1,1.25-5.08c2.83-6.66,10.66-8.08,15.74-2.83a22.39,22.39,0,0,1,4.41,7.58c.42,1.08.83,2.16,1.33,3.25,0,.08.59.08.59,0a16,16,0,0,0,.91-2.84,101,101,0,0,1,4.66-15.48,26.69,26.69,0,0,1,1.59-3.58,7.55,7.55,0,0,1,3.33-3.33,5.91,5.91,0,0,1,6.58.33A6.3,6.3,0,0,1,395.4,171a7.3,7.3,0,0,1-.41,1.25c-3.42,10.58-4.75,21.57-5.5,32.64-.33,4.67-.58,9.33-1.08,13.91a57.82,57.82,0,0,1-1.75,7.58,13,13,0,0,1-1.08,2.41c-3.92,7-12.33,7.41-16.74.67A37.21,37.21,0,0,1,363.35,213c-.67-5.91-1.25-11.82-1.92-17.73,0-.25-.42-.5-.67-.75-.16.25-.41.41-.5.66a3.51,3.51,0,0,0-.24,1.25Z"/><path class="cls-1" d="M395.82,219.87c-.33-1.5-.5-3.08-.83-5.08a61.55,61.55,0,0,1,7.33-31.56,25.6,25.6,0,0,1,6.41-7.91,15.76,15.76,0,0,1,9.66-3.58A11.37,11.37,0,0,1,430,185.23a14.94,14.94,0,0,1-3.66,7.66,9.18,9.18,0,0,1-3.08,2.25,4,4,0,0,1-5.75-3.75,19.25,19.25,0,0,1,.34-2.24c.08-.67.91-1.25.25-2-.5.58-1.09,1.08-1.5,1.66a26.11,26.11,0,0,0-3.75,7.66.9.9,0,0,0,.58,1.25c1,.25,2.08.34,3.08.59a18.32,18.32,0,0,1,7.83,3.41,9.16,9.16,0,0,1,3.66,6.16,18,18,0,0,1,.34,3,38.27,38.27,0,0,1-3.08,15.24A29.7,29.7,0,0,1,423,230.2c-3.17,4.66-7.83,6.33-13.24,5.91a12.3,12.3,0,0,1-9.08-5.58,28.4,28.4,0,0,1-4.49-10.74Zm20.49-13.32a12.15,12.15,0,0,0-2.75-.58c-2.5.25-3.25.83-3.5,2.66a21.37,21.37,0,0,0,.75,10c.92,2.75,1.67,3.42,4.5,1.17a6.06,6.06,0,0,0,1.25-1.58,38.39,38.39,0,0,0,2.74-5.58c1.25-3.58.59-4.92-3.08-6.25Z"/><path class="cls-1" d="M431.88,230.28a38.09,38.09,0,0,1-1.5-12.24,77.55,77.55,0,0,1,5.16-26.4,33.72,33.72,0,0,1,6.33-10.82,14.83,14.83,0,0,1,7.91-4.83,9.07,9.07,0,0,1,9.41,3.16A12.51,12.51,0,0,1,462,189.31c-.25,2-1.25,3.25-2.66,3.5-1.75.33-3.08-.42-4.08-2.33-.42-.75-.67-1.58-1.09-2.33a1,1,0,0,0-1.74-.09,14.47,14.47,0,0,0-1,1.5,54.36,54.36,0,0,0-4.58,11.74c-.34,1.33,0,1.75,1.41,1.83.83.09,1.67,0,2.5.09a4.6,4.6,0,0,1,.58,9.07,25.38,25.38,0,0,1-5.08.17c-1.25,0-1.74.33-1.91,1.58a33.16,33.16,0,0,0,.42,11.49,4.49,4.49,0,0,0,.41,1c.42,1,1.33,1.25,1.92.42,1-1.5,1.91-3.08,2.83-4.66.41-.75.66-1.59,1.08-2.25a5.67,5.67,0,0,1,6.25-2.5,5.82,5.82,0,0,1,4.24,4.91,8.21,8.21,0,0,1-.58,4.66c-1.25,2.75-2.42,5.5-3.75,8.17a14.52,14.52,0,0,1-2.58,3.41c-5.33,5.25-12.32,5.16-17.65-.08a20.07,20.07,0,0,1-4.91-8.33Z"/><path class="cls-1" d="M130.79,204.6h-.25c.42,2.79.83,5.59,1.33,8.38a1.53,1.53,0,0,0,.92.82,1.08,1.08,0,0,0,1-.57c.83-1.32,1.58-2.71,2.42-4a18.33,18.33,0,0,1,2.5-3.54,6,6,0,0,1,6.92-1c2.08,1.07,3.75,3.78,3.08,6.08-1.58,5.51-3.17,11-6.67,15.7a16,16,0,0,1-2.33,2.47,12.55,12.55,0,0,1-16.34.33,19.19,19.19,0,0,1-5.59-7.48A39.14,39.14,0,0,1,114.7,208a52.34,52.34,0,0,1,2.67-20,24.24,24.24,0,0,1,5-9.05,13.5,13.5,0,0,1,10.84-4.6,11.8,11.8,0,0,1,11.42,14.14,8.15,8.15,0,0,1-1,2.8,4,4,0,0,1-6.34.49,25.42,25.42,0,0,1-1.67-2.47c-.75-1.06-1.91-1.06-2.33.17a59.73,59.73,0,0,0-1.92,6.58,30.59,30.59,0,0,0-.41,4.76c-.09,1.16-.09,2.31-.09,3.46Z"/><path class="cls-1" d="M178.47,194.65c-.17,2-.25,3.94-.34,5.42-.08,5.68-.5,10.86.42,16,.25,1.4.58,2.8.92,4.2.16.74.41,1.39.5,2.13a6.1,6.1,0,0,1-2.59,6,6.73,6.73,0,0,1-7,.65,8,8,0,0,1-4.42-5.09c-.58-1.73-.91-3.54-1.41-5.35-.25-1.07-.75-1.4-1.84-1.31a6.73,6.73,0,0,1-1.25.24c-1.75,0-2.08.74-2.42,2.39-.16,1-.16,2-.33,3a21.61,21.61,0,0,1-.67,3.37,4.39,4.39,0,0,1-8.41-.17,17.44,17.44,0,0,1-.5-5.5c.33-4.61.66-9.21,1.41-13.73.84-4.94,2.09-9.79,3.34-14.64a35,35,0,0,1,3.83-9.53,18.84,18.84,0,0,1,5.09-5.84,9,9,0,0,1,13.5,2.71,18.44,18.44,0,0,1,1.83,5.26,34.87,34.87,0,0,1,.42,9.79Zm-14.84,13.56a14.73,14.73,0,0,0,.92-3.29,17.65,17.65,0,0,0,0-4.11c-.25-2.46-2,1.16-2.17,1.89a19.58,19.58,0,0,0-.33,4.94,1.64,1.64,0,0,0,.16.9.8.8,0,0,0,.84.33.89.89,0,0,0,.5-.57Z"/><path class="cls-1" d="M183.38,236.49c-.91-4.76-1.66-9.53-2.5-14.3-.66-8-.91-15.95.34-23.84a60.31,60.31,0,0,1,2.25-9.46A29.56,29.56,0,0,1,193.14,175a36.75,36.75,0,0,1,4.75-3.13c9.33-4.93,20.59-.57,24.17,9.95a21.49,21.49,0,0,1-1.41,17.68,33.36,33.36,0,0,1-10.34,11.92c-.92.66-1.84,1.23-2.75,1.89s-1,1.07-.25,2c3.33,4.11,6.58,8.23,10,12.25a23.86,23.86,0,0,0,9,6.33c2.59,1.07,5.26,1.57,8,.42a4.17,4.17,0,0,1,3.16-.25,3.81,3.81,0,0,1,1.75,6.25,3.49,3.49,0,0,1-.58.57c-4.83,2.72-9.67,5.18-15.5,3.62a28.52,28.52,0,0,1-14.26-8.3,64.92,64.92,0,0,1-4.75-6c-1.5-2.13-2.83-4.35-4.25-6.49-.75-1.15-1.5-2.3-2.34-3.37-.5-.66-1-1.56-1.91-1.23-.34.16-.5,1.23-.5,1.89a38.87,38.87,0,0,0,.25,4.44c.25,3.2.58,6.41.91,9.62a15.32,15.32,0,0,1,.09,2.79,6.24,6.24,0,0,1-4.5,5.76,6.08,6.08,0,0,1-6.84-2.55,14,14,0,0,1-1.83-4.44ZM207,193.58a9.05,9.05,0,0,0,1.17-5.26,8.69,8.69,0,0,0-.5-1.65,2.06,2.06,0,0,0-3.33-1.07,15.15,15.15,0,0,0-5.59,6.25,29,29,0,0,0-3,10.85c-.08.74.58,1.16,1.33.74a22.33,22.33,0,0,0,10-9.78Z"/><path class="cls-1" d="M243.82,175.82a22.47,22.47,0,0,1,3.42.25,16.22,16.22,0,0,1,4.41,1.4,6.79,6.79,0,0,1,3.5,7.56,7,7,0,0,1-6.25,5.59,37.66,37.66,0,0,1-4.25,0c-1.25,0-2.5-.08-3.75-.08a2,2,0,0,0-2.25,1.72,34.16,34.16,0,0,0-.58,5.1c-.09.91.5,1.4,1.41,1.48,1.67.17,3.34.17,4.92.49a3.58,3.58,0,0,1,2.67,4.2,4.06,4.06,0,0,1-3.5,3.29c-1.17.16-2.34.08-3.5.16-.75.08-1.34.49-1.17,1.32a56.86,56.86,0,0,0,1.25,6.57A2.7,2.7,0,0,0,243,217c1.5-.08,3-.33,4.51-.33a11.69,11.69,0,0,1,3.41.25,5.47,5.47,0,0,1,2.17,9.12,11.31,11.31,0,0,1-2.75,2.06A14.67,14.67,0,0,1,232,225.23a19.68,19.68,0,0,1-4.5-8.55,107.4,107.4,0,0,1-2.84-17,32.52,32.52,0,0,1,.67-11.67c.17-.74.42-1.48.67-2.22,2.08-6.33,6.42-9.62,12.92-10a41.25,41.25,0,0,1,4.58.17Z"/><path class="cls-1" d="M192.56,103.56a22.6,22.6,0,0,1,1.66,8.91,23.56,23.56,0,0,1-4.72,13.18,33.7,33.7,0,0,1-15.63,12.23c-2.45,1-5,1.57-7.43,2.36a2.22,2.22,0,0,0-1.92,2.7c.27,3.32.62,6.64.88,10a34.33,34.33,0,0,1,.26,4.1,7.1,7.1,0,0,1-5.42,6.55,7,7,0,0,1-7.42-3.31,17.78,17.78,0,0,1-2-4.55c-3.49-13-4.54-26.11-1.92-39.38,1.75-8.82,6.29-15.89,14-20.61,5-3,10.31-4.45,16.16-3.23a17.58,17.58,0,0,1,13.45,11.18Zm-17,12a19.67,19.67,0,0,0,1.31-3.15c0-2.1-1.14-3.14-2.45-2.79a9.25,9.25,0,0,0-3.32,1.39,13.28,13.28,0,0,0-5.41,9.7,1.21,1.21,0,0,0,1.83,1.22,16.89,16.89,0,0,0,8.12-6.46Z"/><path class="cls-1" d="M191.07,159.62a39.75,39.75,0,0,1-1.57-12.83,81.24,81.24,0,0,1,5.41-27.68,35.41,35.41,0,0,1,6.64-11.36,15.54,15.54,0,0,1,8.3-5.06,9.48,9.48,0,0,1,9.87,3.32,13.07,13.07,0,0,1,3,10.65c-.26,2.1-1.31,3.41-2.79,3.67-1.83.35-3.23-.44-4.28-2.45-.44-.78-.7-1.66-1.13-2.44a1,1,0,0,0-1.84-.09,17.89,17.89,0,0,0-1,1.57,57.88,57.88,0,0,0-4.8,12.31c-.35,1.4,0,1.84,1.49,1.93.87.08,1.74,0,2.62.08a4.83,4.83,0,0,1,.61,9.52,27.17,27.17,0,0,1-5.33.18c-1.31,0-1.83.35-2,1.66a34.91,34.91,0,0,0,.44,12.05,5.44,5.44,0,0,0,.43,1c.44,1.05,1.4,1.31,2,.44,1-1.57,2-3.23,3-4.89.44-.79.7-1.66,1.14-2.36a5.94,5.94,0,0,1,6.55-2.62,6.11,6.11,0,0,1,4.45,5.16,8.6,8.6,0,0,1-.61,4.89c-1.31,2.88-2.53,5.76-3.93,8.55a15.29,15.29,0,0,1-2.71,3.58c-5.59,5.5-12.92,5.42-18.51-.08a21.13,21.13,0,0,1-5.15-8.74Z"/><path class="cls-1" d="M223.73,156.13c-.17-4.36-.26-8.73-.44-14.84a138.57,138.57,0,0,1,1.58-23.06,25,25,0,0,1,3.14-9.34c4.19-6.73,10.22-10.13,18.16-9.78A15.7,15.7,0,0,1,259,106.44c5.15,7.6,5.24,20-3.67,27.25a4.85,4.85,0,0,0-1.22,1.05,2.94,2.94,0,0,0-.7,1.74c1.31,6,2.71,12.05,4.11,18.08a23.15,23.15,0,0,1,.78,3.4,6.54,6.54,0,0,1-3.23,6.73,6.89,6.89,0,0,1-7.51-.18,9.94,9.94,0,0,1-4.37-5.93c-1-3.58-1.74-7.16-2.61-10.74-.35-1.58-.53-3.15-1-4.63a5.78,5.78,0,0,0-1.39-2.36,2.38,2.38,0,0,0-1.75-.61c-.17,0-.44.87-.52,1.39-.18,1.58-.27,3.15-.35,4.72-.18,3.84-.35,7.68-.61,11.53a12.32,12.32,0,0,1-.61,3.05,5.16,5.16,0,0,1-5.33,3.85,5.09,5.09,0,0,1-4.89-4,20.4,20.4,0,0,1-.7-4.63Zm21.57-33.88c1.66-.88,2.27-2.45,2.27-4.54a11.73,11.73,0,0,0-.52-2,2.48,2.48,0,0,0-3.5-1.57,5.38,5.38,0,0,0-3,3.05c-.7,1.84-1.23,3.76-1.84,5.68-.52,1.48-.17,2.44,1.66,1.75a32.14,32.14,0,0,0,5-2.27Z"/><path class="cls-1" d="M292.46,138.32A32.66,32.66,0,0,1,293.77,151a22.29,22.29,0,0,1-1.75,7.77c-2.09,5.15-6.11,8.12-11.87,8.73A14.13,14.13,0,0,1,266.7,162a15.79,15.79,0,0,1-3.23-13.53,10.43,10.43,0,0,1,1-2.8,3.48,3.48,0,0,1,3.84-1.4,3.16,3.16,0,0,1,2.53,2.62c.09.79-.09,1.66,0,2.54a11,11,0,0,0,.61,3.32c.79,1.92,2.45,3.4,3.23,3.05,1.4-.61,1.58-2.09,1.84-3.23a17.9,17.9,0,0,0-3.58-15.89,27.7,27.7,0,0,0-2.8-2.71c-1-.87-2-1.66-2.88-2.62a15.5,15.5,0,0,1-4.45-14.84,21.79,21.79,0,0,1,5.67-10.75,12.94,12.94,0,0,1,11.79-4.19,9.91,9.91,0,0,1,8.73,8.3,6.53,6.53,0,0,1-.52,4.1c-1.13,2.45-2.79,3.32-5.59,2.88l-.78-.26c-.79-.26-1.66-.78-2.36.09a3.25,3.25,0,0,0,0,3.93c.87,1,1.92,1.83,2.88,2.71a31.91,31.91,0,0,1,9.69,15.37Z"/><path class="cls-1" d="M328.44,108.19c2.18,4.37,4.1,10.57,5,18.86a62.38,62.38,0,0,1-.26,13.8,44.81,44.81,0,0,1-5.5,16.33,22.79,22.79,0,0,1-6.55,7.6c-5.68,4.19-12.14,4.1-17.64-.35a22.55,22.55,0,0,1-8.21-13.36,83.57,83.57,0,0,1-1.4-12.23,72.73,72.73,0,0,1,3-24.8,35.06,35.06,0,0,0,1.4-6.72c.61-5.42,5.07-8.65,9.52-9.7,7.16-1.74,17.38,3.41,21,10.66Zm-22.27,2.36A90,90,0,0,0,305,139.19c.35,2.44.61,4.89,1.14,7.25a9.59,9.59,0,0,0,3.58,5.67,1.51,1.51,0,0,0,2.36-.52,23.13,23.13,0,0,0,1.22-2.44,43.84,43.84,0,0,0,2.53-10.66,43.78,43.78,0,0,0-1.13-18.08c-1.14-4.19-3.06-7.94-6.64-10.65-1-.7-1.75-.44-2,.79Z"/><path class="cls-1" d="M343.46,124.17c-.18,2.27-.27,4.54-.35,6.55.43,7.42.7,14.58,2.35,21.57a12.45,12.45,0,0,1,.35,3.14,3.71,3.71,0,0,1-3,3.58,3.63,3.63,0,0,1-4.19-1.92,15.52,15.52,0,0,1-1.39-3.84c-.62-3-1.23-5.94-1.66-9-1.4-10.13-1.92-20.34-.44-30.56a21.55,21.55,0,0,1,1.31-5.33c3-7,11.18-8.47,16.5-3a23.39,23.39,0,0,1,4.63,8c.44,1.14.88,2.27,1.4,3.41,0,.08.61.08.61,0a16.36,16.36,0,0,0,1-3,105.89,105.89,0,0,1,4.89-16.25,29.88,29.88,0,0,1,1.66-3.75,8,8,0,0,1,3.49-3.49,6.18,6.18,0,0,1,6.9.35,6.6,6.6,0,0,1,2.88,6.81,7.7,7.7,0,0,1-.43,1.31c-3.58,11.09-5,22.61-5.77,34.23-.34,4.89-.61,9.78-1.13,14.58a63.17,63.17,0,0,1-1.83,8,13.41,13.41,0,0,1-1.14,2.53c-4.1,7.34-12.92,7.77-17.55.7a39.08,39.08,0,0,1-5.77-17.2c-.69-6.2-1.31-12.4-2-18.6,0-.26-.44-.53-.7-.79-.18.26-.44.44-.53.7a3.6,3.6,0,0,0-.26,1.31Z"/><path class="cls-1" d="M406.68,123.91c-.17,2.09-.26,4.19-.35,5.76-.09,6-.52,11.53.44,16.94.26,1.49.61,3,1,4.46a20.11,20.11,0,0,1,.52,2.27,6.49,6.49,0,0,1-2.7,6.37,7,7,0,0,1-7.34.7,8.45,8.45,0,0,1-4.63-5.41c-.61-1.84-1-3.76-1.48-5.68a1.54,1.54,0,0,0-1.92-1.4,6.9,6.9,0,0,1-1.31.26c-1.84,0-2.19.79-2.54,2.54-.17,1.05-.17,2.09-.35,3.14a22.9,22.9,0,0,1-.69,3.58,4.59,4.59,0,0,1-8.82-.17,19,19,0,0,1-.53-5.85c.35-4.89.7-9.79,1.49-14.59.87-5.24,2.18-10.39,3.49-15.54a37.41,37.41,0,0,1,4-10.13,20,20,0,0,1,5.32-6.2,9.41,9.41,0,0,1,14.15,2.88,20,20,0,0,1,1.92,5.59,37.62,37.62,0,0,1,.44,10.39Zm-15.54,14.41a16.62,16.62,0,0,0,1-3.5,18.7,18.7,0,0,0,0-4.36c-.26-2.62-2.1,1.22-2.27,2a20.94,20.94,0,0,0-.35,5.23,1.82,1.82,0,0,0,.17,1,.86.86,0,0,0,.88.35.93.93,0,0,0,.52-.62Z"/><path class="cls-1" d="M437.33,160.93c-4,2.45-8.38,4-12.75,3.76a15,15,0,0,1-10.22-5.76,19.63,19.63,0,0,1-4.19-9.52,65.73,65.73,0,0,1-1-10c.09-8.64.44-17.29.7-25.93.09-1.57,0-3.15.18-4.72a16.77,16.77,0,0,1,1-4.19,6.27,6.27,0,0,1,6.37-4.19,6.42,6.42,0,0,1,6,4.72,14.65,14.65,0,0,1,.61,4.27c.17,7.25.26,14.5.43,21.75.09,4,.35,8,.62,12.05a23.58,23.58,0,0,0,.7,4.28c.61,2.18,1.92,3,4.27,3,1,0,1.93-.26,2.89-.34a6.12,6.12,0,0,1,6.72,4.19,6,6,0,0,1-2.45,7.16Z"/></g></g></svg>